<svg width="5571" height="1091" viewBox="0 0 5571 1091" fill="none" xmlns="http://www.w3.org/2000/svg">
<path d="M1090.7 1090.75H0.703125V0.75H1090.7V1090.75ZM631.602 817.347C705.035 817.347 775.46 788.544 827.386 737.276C879.311 686.008 908.482 616.474 908.482 543.971C908.482 471.467 879.311 401.932 827.386 350.664C775.461 299.396 705.035 270.595 631.602 270.595V817.347ZM372.227 768.306C431.717 768.306 488.771 744.672 530.837 702.606C572.903 660.541 596.535 603.487 596.535 543.997C596.535 484.507 572.903 427.453 530.837 385.387C488.771 343.321 431.717 319.688 372.227 319.688V768.306ZM182.969 691.218C222.009 691.218 259.451 675.709 287.057 648.104C314.662 620.498 330.171 583.056 330.171 544.016C330.171 504.975 314.662 467.534 287.057 439.928C259.451 412.322 222.009 396.813 182.969 396.813V691.218Z" fill="#CC0025"/>
<path d="M2816 379.004V284.248H2579.11C2504.35 284.248 2443.74 344.853 2443.74 419.614V466.992C2443.74 541.752 2504.35 602.358 2579.11 602.358H2739.04V730.955H2464.05V825.711H2698.43C2773.19 825.711 2833.79 765.106 2833.79 690.346V642.968C2833.79 568.207 2773.19 507.602 2698.43 507.602H2538.5V379.004H2816Z" fill="#CC0025"/>
<path d="M5552.96 379.004V284.248H5316.07C5241.31 284.248 5180.7 344.853 5180.7 419.614V466.992C5180.7 541.752 5241.31 602.358 5316.07 602.358H5476V730.955H5201.01V825.711H5435.39C5510.15 825.711 5570.75 765.106 5570.75 690.346V642.968C5570.75 568.207 5510.15 507.602 5435.39 507.602H5275.46V379.004H5552.96Z" fill="#CC0025"/>
<path d="M2362.51 379.758H2072.15V507.602H2355.74V602.358H2072.15V730.202H2362.51V825.711H1976.72V284.248H2362.51V379.758Z" fill="#CC0025"/>
<path d="M3361.7 548.248C3361.7 447.321 3279.89 365.504 3178.96 365.504C3078.03 365.504 2996.22 447.321 2996.22 548.248C2996.22 649.175 3078.03 730.992 3178.96 730.992C3279.89 730.992 3361.7 649.175 3361.7 548.248ZM3456.46 548.248C3456.46 701.507 3332.22 825.748 3178.96 825.748C3025.7 825.748 2901.46 701.507 2901.46 548.248C2901.46 394.989 3025.7 270.748 3178.96 270.748C3332.22 270.748 3456.46 394.989 3456.46 548.248Z" fill="#CC0025"/>
<path fill-rule="evenodd" clip-rule="evenodd" d="M1895.51 825.711H1783.95L1700.88 656.504H1505.46V825.711H1410.7V284.248H1722.04C1796.81 284.248 1857.41 344.853 1857.41 419.614V561.748H1766.91L1895.51 825.711ZM1762.65 561.748V379.004H1505.46V561.748H1762.65Z" fill="#CC0025"/>
<path d="M3704.76 284.248L3871.23 783.661V284.248H3965.99V825.711H3785.38L3618.9 326.299V825.711H3524.15V284.248H3704.76Z" fill="#CC0025"/>
<path d="M4821.01 284.248L4987.48 783.661V284.248H5082.24V825.711H4901.63L4735.15 326.299V825.711H4640.4V284.248H4821.01Z" fill="#CC0025"/>
<path d="M4559.16 824.271L4554.84 825.711H4459.76L4303.18 355.963L4146.6 825.711H4051.53L4047.2 824.271L4227.21 284.248H4379.15L4559.16 824.271Z" fill="#CC0025"/>
</svg>
