<svg xmlns="http://www.w3.org/2000/svg" viewBox="0 0 6943 900" role="img" aria-label="Resonans CMS">
  <rect x="0" y="0" width="900" height="900" fill="#D8052A"/>

  <path d="M 130 320 v 260 a 130 130 0 0 0 0 -260 z" fill="#ffffff"/>
  <path d="M 285 240 v 430 a 215 215 0 0 0 0 -430 z" fill="#ffffff"/>
  <path d="M 465 130 v 640 a 320 320 0 0 0 0 -640 z" fill="#ffffff"/>

  <g transform="translate(1060 760.0) scale(0.8857142857142857)" fill="#D8052A">
    <g transform="translate(0 0) scale(1 -1)"><path d="M615 0 406 249H609L775 53V0ZM56 0V719H627Q668 719 701.5 699.0Q735 679 755.5 645.0Q776 611 776 571V385Q776 345 755.5 311.0Q735 277 701.5 257.0Q668 237 627 237L211 236V0ZM211 393H619Q619 393 619.0 393.0Q619 393 619 393V564Q619 564 619.0 564.0Q619 564 619 564H211Q211 564 211.0 564.0Q211 564 211 564V393Q211 393 211.0 393.0Q211 393 211 393Z"/></g><g transform="translate(825 0) scale(1 -1)"><path d="M58 0V720H723V564H215V438H624V282H215V156H723V0Z"/></g><g transform="translate(1591 0) scale(1 -1)"><path d="M202 0Q162 0 128.0 20.0Q94 40 74.0 74.0Q54 108 54 148V215H209V156Q209 156 209.0 156.0Q209 156 209 156H617Q617 156 617.0 156.0Q617 156 617 156V282Q617 282 617.0 282.0Q617 282 617 282H202Q162 282 128.0 302.0Q94 322 74.0 355.5Q54 389 54 430V572Q54 613 74.0 646.5Q94 680 128.0 700.0Q162 720 202 720H626Q666 720 699.5 700.0Q733 680 753.5 646.5Q774 613 774 572V505H617V564Q617 564 617.0 564.0Q617 564 617 564H209Q209 564 209.0 564.0Q209 564 209 564V438Q209 438 209.0 438.0Q209 438 209 438H626Q666 438 699.5 418.0Q733 398 753.5 364.5Q774 331 774 290V148Q774 108 753.5 74.0Q733 40 699.5 20.0Q666 0 626 0Z"/></g><g transform="translate(2419 0) scale(1 -1)"><path d="M202 0Q162 0 128.0 20.0Q94 40 74.0 74.0Q54 108 54 148V572Q54 613 74.0 646.5Q94 680 128.0 700.0Q162 720 202 720H626Q666 720 699.5 700.0Q733 680 753.5 646.5Q774 613 774 572V148Q774 108 753.5 74.0Q733 40 699.5 20.0Q666 0 626 0ZM209 156H617Q617 156 617.0 156.0Q617 156 617 156V564Q617 564 617.0 564.0Q617 564 617 564H209Q209 564 209.0 564.0Q209 564 209 564V156Q209 156 209.0 156.0Q209 156 209 156Z"/></g><g transform="translate(3247 0) scale(1 -1)"><path d="M56 0V720H216L619 240V720H776V0H616L211 482V0Z"/></g><g transform="translate(4079 0) scale(1 -1)"><path d="M58 0V572Q58 613 78.0 646.5Q98 680 132.0 700.0Q166 720 206 720H629Q670 720 703.5 700.0Q737 680 757.5 646.5Q778 613 778 572V0H621V232H213V0H58ZM213 388H621V564Q621 564 621.0 564.0Q621 564 621 564H213Q213 564 213.0 564.0Q213 564 213 564V388Z"/></g><g transform="translate(4915 0) scale(1 -1)"><path d="M56 0V720H216L619 240V720H776V0H616L211 482V0Z"/></g><g transform="translate(5747 0) scale(1 -1)"><path d="M202 0Q162 0 128.0 20.0Q94 40 74.0 74.0Q54 108 54 148V215H209V156Q209 156 209.0 156.0Q209 156 209 156H617Q617 156 617.0 156.0Q617 156 617 156V282Q617 282 617.0 282.0Q617 282 617 282H202Q162 282 128.0 302.0Q94 322 74.0 355.5Q54 389 54 430V572Q54 613 74.0 646.5Q94 680 128.0 700.0Q162 720 202 720H626Q666 720 699.5 700.0Q733 680 753.5 646.5Q774 613 774 572V505H617V564Q617 564 617.0 564.0Q617 564 617 564H209Q209 564 209.0 564.0Q209 564 209 564V438Q209 438 209.0 438.0Q209 438 209 438H626Q666 438 699.5 418.0Q733 398 753.5 364.5Q774 331 774 290V148Q774 108 753.5 74.0Q733 40 699.5 20.0Q666 0 626 0Z"/></g>
  </g>
</svg>
