<svg version="1.2" xmlns="http://www.w3.org/2000/svg" viewBox="0 0 1091 1091" width="1091" height="1091">
	<style>
		.s0 { fill: #cc0025 } 
	</style>
	<path class="s0" d="m1090.7 1090.75h-1090v-1090h1090zm-459.1-273.4c73.43 0 143.86-28.81 195.79-80.07 51.92-51.27 81.09-120.81 81.09-193.31 0-72.5-29.17-142.04-81.09-193.31-51.93-51.26-122.36-80.06-195.79-80.06zm-259.37-49.05c59.49 0 116.54-23.63 158.61-65.7 42.06-42.06 65.69-99.12 65.69-158.61 0-59.48-23.63-116.54-65.69-158.6-42.07-42.07-99.12-65.7-158.61-65.7zm-189.26-77.09c39.04 0 76.48-15.51 104.09-43.12 27.6-27.6 43.11-65.04 43.11-104.08 0-39.04-15.51-76.49-43.11-104.09-27.61-27.61-65.05-43.12-104.09-43.12z"/>
	<path class="s0" d="m2816 379v-94.75h-236.89c-74.76 0-135.37 60.6-135.37 135.36v47.38c0 74.76 60.61 135.37 135.37 135.37h159.93v128.6h-274.99v94.75h234.38c74.76 0 135.36-60.6 135.36-135.36v-47.38c0-74.76-60.6-135.37-135.36-135.37h-159.93v-128.6z"/>
	<path class="s0" d="m5552.96 379v-94.75h-236.89c-74.76 0-135.37 60.6-135.37 135.36v47.38c0 74.76 60.61 135.37 135.37 135.37h159.93v128.6h-274.99v94.75h234.38c74.76 0 135.36-60.6 135.36-135.36v-47.38c0-74.76-60.6-135.37-135.36-135.37h-159.93v-128.6z"/>
	<path class="s0" d="m2362.51 379.76h-290.36v127.84h283.59v94.76h-283.59v127.84h290.36v95.51h-385.79v-541.46h385.79z"/>
	<path class="s0" d="m3456.46 548.25c0 153.26-124.24 277.5-277.5 277.5-153.26 0-277.5-124.24-277.5-277.5 0-153.26 124.24-277.5 277.5-277.5 153.26 0 277.5 124.24 277.5 277.5zm-94.76 0c0-100.93-81.81-182.75-182.74-182.75-100.93 0-182.74 81.82-182.74 182.75 0 100.92 81.81 182.74 182.74 182.74 100.93 0 182.74-81.82 182.74-182.74z"/>
	<path fill-rule="evenodd" class="s0" d="m1895.51 825.71h-111.56l-83.07-169.21h-195.42v169.21h-94.76v-541.46h311.34c74.77 0 135.37 60.6 135.37 135.36v142.14h-90.5zm-132.86-263.96v-182.75h-257.19v182.75z"/>
	<path class="s0" d="m3704.76 284.25l166.47 499.41v-499.41h94.76v541.46h-180.61l-166.48-499.41v499.41h-94.75v-541.46z"/>
	<path class="s0" d="m4821.01 284.25l166.47 499.41v-499.41h94.76v541.46h-180.61l-166.48-499.41v499.41h-94.75v-541.46z"/>
	<path class="s0" d="m4559.16 824.27l-4.32 1.44h-95.08l-156.58-469.75-156.58 469.75h-95.07l-4.33-1.44 180.01-540.02h151.94z"/>
</svg>